<svg xmlns="http://www.w3.org/2000/svg" xmlns:xlink="http://www.w3.org/1999/xlink" id="datahub-logo-color_loading_panic" shape-rendering="geometricPrecision" text-rendering="geometricPrecision" viewBox="0 0 180 180"><defs><linearGradient id="red_gradient" x1="83.06" x2="98.74" y1="68.88" y2="40.67" gradientUnits="userSpaceOnUse"><stop offset="0" stop-color="#dd3163"/><stop offset="1" stop-color="#ff5663"/></linearGradient><linearGradient id="yellow_gradient" x1="91.08" x2="35.79" y1="126.64" y2="50.66" gradientUnits="userSpaceOnUse"><stop offset="0" stop-color="#efab00"/><stop offset="1" stop-color="#efb700"/></linearGradient><linearGradient id="blue_gradient" x1="50.22" x2="144.42" y1="96.82" y2="17.17" gradientUnits="userSpaceOnUse"><stop offset="0" stop-color="#1890ff"/><stop offset="1" stop-color="#18b5ff"/></linearGradient><mask id="red_mask"><circle r="34" fill="#fff"/><circle r="26" fill="#000"/><rect width="34" height="34" y="-34" fill="#000" transform="rotate(170)"/><rect width="34" height="34" y="-34" fill="#000" transform="rotate(280)"/><rect width="34" height="34" y="-34" fill="#000" transform="rotate(225)"/><g id="red_mask_cap"><circle cy="-30" r="4" fill="#fff" transform="rotate(10)"/><circle cy="-30" r="4" fill="#fff" transform="rotate(170)"/></g></mask><mask id="yellow_mask"><circle r="49" fill="#fff"/><circle r="41" fill="#000"/><rect width="49" height="49" y="-49" fill="#000" transform="rotate(20)"/><rect width="49" height="49" y="-49" fill="#000" transform="rotate(70)"/><circle cy="-45" r="4" fill="#fff" transform="rotate(20)"/><circle cy="-45" r="4" fill="#fff" transform="rotate(160)"/></mask><mask id="blue_mask"><circle r="64" fill="#fff"/><circle r="56" fill="#000"/><rect width="64" height="64" y="-64" fill="#000" transform="rotate(275)"/><rect width="64" height="64" y="-64" fill="#000" transform="rotate(220)"/><circle cy="-60" r="4" fill="#fff" transform="rotate(5)"/><circle cy="-60" r="4" fill="#fff" transform="rotate(220)"/></mask></defs><g id="logo" transform="translate(90,90)"><g id="red" fill="url(#red_gradient)"><circle id="red_arc" r="34" mask="url(#red_mask)"/><animateTransform attributeName="transform" dur="0.5s" from="0" repeatCount="indefinite" to="360" type="rotate"/></g><g id="yellow" fill="url(#yellow_gradient)"><rect id="yellow_joint" width="8" height="35" x="-4" y="45" transform="rotate(57)"/><circle id="yellow_arc" r="49" mask="url(#yellow_mask)"/><circle cy="80" r="4" transform="rotate(57)"/><circle id="yellow_satellite" cy="80" r="10" transform="rotate(57)"><animateTransform attributeName="transform" dur="4s" from="360" repeatCount="indefinite" to="0" type="rotate"/></circle><animateTransform attributeName="transform" dur="2s" from="360" repeatCount="indefinite" to="0" type="rotate"/></g><g id="blue" fill="url(#blue_gradient)"><rect id="blue_joint" width="8" height="20" x="-4" y="-80" transform="rotate(57)"/><circle id="blue_arc" r="64" mask="url(#blue_mask)"/><circle cy="-80" r="4" transform="rotate(57)"/><circle id="blue_satellite" cy="-80" r="10" transform="rotate(57)"><animateTransform attributeName="transform" dur="1s" from="360" repeatCount="indefinite" to="0" type="rotate"/></circle><animateTransform attributeName="transform" dur="2s" from="0" repeatCount="indefinite" to="360" type="rotate"/></g></g></svg>