<svg xmlns="http://www.w3.org/2000/svg" xmlns:xlink="http://www.w3.org/1999/xlink" width="50" height="50" version="1.1" viewBox="0 0 50 50"><g fill="none" fill-rule="evenodd" stroke="none" stroke-width="1"><g fill="#509EE3"><ellipse id="Oval-7" cx="10.576" cy="13.991" rx="2.576" ry="2.617"/><ellipse id="Oval-7" cx="10.576" cy="21.319" rx="2.576" ry="2.617"/><ellipse id="Oval-7" cx="17.788" cy="13.991" opacity=".2" rx="2.576" ry="2.617"/><ellipse id="Oval-7" cx="17.788" cy="21.39" rx="2.576" ry="2.617"/><ellipse id="Oval-8" cx="25" cy="13.991" opacity=".2" rx="2.576" ry="2.617"/><ellipse id="Oval-8" cx="25" cy="5.617" opacity=".2" rx="2.576" ry="2.617"/><ellipse id="Oval-8" cx="25" cy="21.39" opacity=".2" rx="2.576" ry="2.617"/><ellipse id="Oval-9" cx="32.212" cy="13.991" opacity=".2" rx="2.576" ry="2.617"/><ellipse id="Oval-9" cx="39.424" cy="13.991" rx="2.576" ry="2.617"/><ellipse id="Oval-9" cx="32.212" cy="21.39" rx="2.576" ry="2.617"/><ellipse id="Oval-9" cx="39.424" cy="21.39" rx="2.576" ry="2.617"/><ellipse id="Oval-13" cx="10.576" cy="28.646" rx="2.576" ry="2.617"/><ellipse id="Oval-12" cx="17.788" cy="28.717" opacity=".2" rx="2.576" ry="2.617"/><ellipse id="Oval-11" cx="25" cy="28.717" rx="2.576" ry="2.617"/><ellipse id="Oval-10" cx="32.212" cy="28.717" opacity=".2" rx="2.576" ry="2.617"/><ellipse id="Oval-10" cx="39.424" cy="28.717" rx="2.576" ry="2.617"/><ellipse id="Oval-17" cx="10.576" cy="35.973" rx="2.576" ry="2.617"/><ellipse id="Oval-16" cx="17.788" cy="36.044" opacity=".2" rx="2.576" ry="2.617"/><ellipse id="Oval-15" cx="25" cy="36.044" opacity=".2" rx="2.576" ry="2.617"/><ellipse id="Oval-15" cx="25" cy="43.372" opacity=".2" rx="2.576" ry="2.617"/><ellipse id="Oval-14" cx="32.212" cy="36.044" opacity=".2" rx="2.576" ry="2.617"/><ellipse id="Oval-14" cx="39.424" cy="36.044" rx="2.576" ry="2.617"/></g></g></svg>