<svg xmlns="http://www.w3.org/2000/svg" xmlns:xlink="http://www.w3.org/1999/xlink" id="Layer_1" width="44" height="59.76" x="0" y="0" enable-background="new 0 0 44 59.76" version="1.1" viewBox="0 0 44 59.76" xml:space="preserve"><g><linearGradient id="SVGID_1_" x1="13.841" x2="26.186" y1="19.422" y2="50.697" gradientUnits="userSpaceOnUse"><stop offset="0" style="stop-color:#7894a3"/><stop offset=".232" style="stop-color:#7591a0"/><stop offset=".418" style="stop-color:#6b8897"/><stop offset=".589" style="stop-color:#5a7a88"/><stop offset=".749" style="stop-color:#426573"/><stop offset=".902" style="stop-color:#244a58"/><stop offset="1" style="stop-color:#0c3543"/></linearGradient><path fill="url(#SVGID_1_)" d="M27.186,36.189h6.752h4.927c0-8.761-6.873-17.16-11.563-23.287C22.786,7.01,20.428,2,20.428,2 s-2.349,5.01-6.866,10.903C8.865,19.029,2,27.429,2,36.189c0,10.178,8.252,18.435,18.428,18.435v-4.928v-6.749h6.758V36.189z"/><linearGradient id="SVGID_2_" x1="13.774" x2="26.125" y1="19.433" y2="50.72" gradientUnits="userSpaceOnUse"><stop offset="0" style="stop-color:#7894a3"/><stop offset=".232" style="stop-color:#7591a0"/><stop offset=".418" style="stop-color:#6b8897"/><stop offset=".589" style="stop-color:#5a7a88"/><stop offset=".749" style="stop-color:#426573"/><stop offset=".902" style="stop-color:#244a58"/><stop offset="1" style="stop-color:#0c3543"/></linearGradient><rect width="6.751" height="6.758" x="21.394" y="43.904" fill="url(#SVGID_2_)"/><linearGradient id="SVGID_3_" x1="11.407" x2="23.754" y1="20.371" y2="51.651" gradientUnits="userSpaceOnUse"><stop offset="0" style="stop-color:#7894a3"/><stop offset=".232" style="stop-color:#7591a0"/><stop offset=".418" style="stop-color:#6b8897"/><stop offset=".589" style="stop-color:#5a7a88"/><stop offset=".749" style="stop-color:#426573"/><stop offset=".902" style="stop-color:#244a58"/><stop offset="1" style="stop-color:#0c3543"/></linearGradient><path fill="url(#SVGID_3_)" d="M28.145,51.758h-6.751v4.928c2.383,0,4.659-0.455,6.751-1.277V51.758z"/><linearGradient id="SVGID_4_" x1="21.93" x2="34.273" y1="16.23" y2="47.499" gradientUnits="userSpaceOnUse"><stop offset="0" style="stop-color:#7894a3"/><stop offset=".232" style="stop-color:#7591a0"/><stop offset=".418" style="stop-color:#6b8897"/><stop offset=".589" style="stop-color:#5a7a88"/><stop offset=".749" style="stop-color:#426573"/><stop offset=".902" style="stop-color:#244a58"/><stop offset="1" style="stop-color:#0c3543"/></linearGradient><rect width="6.756" height="6.75" x="28.145" y="37.154" fill="url(#SVGID_4_)"/><linearGradient id="SVGID_5_" x1="20.354" x2="32.694" y1="16.87" y2="48.132" gradientUnits="userSpaceOnUse"><stop offset="0" style="stop-color:#7894a3"/><stop offset=".232" style="stop-color:#7591a0"/><stop offset=".418" style="stop-color:#6b8897"/><stop offset=".589" style="stop-color:#5a7a88"/><stop offset=".749" style="stop-color:#426573"/><stop offset=".902" style="stop-color:#244a58"/><stop offset="1" style="stop-color:#0c3543"/></linearGradient><path fill="url(#SVGID_5_)" d="M29.529,45.291v6.751h5.783c0.332-0.308,0.66-0.636,0.969-0.97v-5.781H29.529z"/><linearGradient id="SVGID_6_" x1="18.789" x2="31.133" y1="17.47" y2="48.741" gradientUnits="userSpaceOnUse"><stop offset="0" style="stop-color:#7894a3"/><stop offset=".232" style="stop-color:#7591a0"/><stop offset=".418" style="stop-color:#6b8897"/><stop offset=".589" style="stop-color:#5a7a88"/><stop offset=".749" style="stop-color:#426573"/><stop offset=".902" style="stop-color:#244a58"/><stop offset="1" style="stop-color:#0c3543"/></linearGradient><path fill="url(#SVGID_6_)" d="M31.077,57.76c2.163-0.848,4.116-2.098,5.791-3.649h-5.791V57.76z"/><linearGradient id="SVGID_7_" x1="27.936" x2="40.278" y1="13.86" y2="45.128" gradientUnits="userSpaceOnUse"><stop offset="0" style="stop-color:#7894a3"/><stop offset=".232" style="stop-color:#7591a0"/><stop offset=".418" style="stop-color:#6b8897"/><stop offset=".589" style="stop-color:#5a7a88"/><stop offset=".749" style="stop-color:#426573"/><stop offset=".902" style="stop-color:#244a58"/><stop offset="1" style="stop-color:#0c3543"/></linearGradient><path fill="url(#SVGID_7_)" d="M35.999,43.904h3.647c0.825-2.09,1.28-4.366,1.28-6.75h-4.928V43.904z"/><linearGradient id="SVGID_8_" x1="26.262" x2="38.617" y1="14.484" y2="45.785" gradientUnits="userSpaceOnUse"><stop offset="0" style="stop-color:#7894a3"/><stop offset=".232" style="stop-color:#7591a0"/><stop offset=".418" style="stop-color:#6b8897"/><stop offset=".589" style="stop-color:#5a7a88"/><stop offset=".749" style="stop-color:#426573"/><stop offset=".902" style="stop-color:#244a58"/><stop offset="1" style="stop-color:#0c3543"/></linearGradient><path fill="url(#SVGID_8_)" d="M38.352,52.629C39.9,50.955,41.15,49.002,42,46.836h-3.648V52.629z"/><linearGradient id="SVGID_9_" x1="22.712" x2="16.381" y1="53.062" y2="5.2" gradientUnits="userSpaceOnUse"><stop offset="0" style="stop-color:#7894a3"/><stop offset=".028" style="stop-color:#849daa"/><stop offset=".109" style="stop-color:#a0b1bb"/><stop offset=".2" style="stop-color:#b7c2c8"/><stop offset=".305" style="stop-color:#c8cfd3"/><stop offset=".431" style="stop-color:#d5d8da"/><stop offset=".601" style="stop-color:#dcdddf"/><stop offset="1" style="stop-color:#dedfe0"/></linearGradient><path fill="url(#SVGID_9_)" d="M26.775,35.721h6.348h4.629c0-8.242-6.448-16.133-10.862-21.895 c-4.247-5.544-6.462-10.249-6.462-10.249s-2.207,4.705-6.454,10.249C9.56,19.588,3.104,27.479,3.104,35.721 c0,9.569,7.345,17.324,16.914,17.324v-4.629v-5.938h6.758V35.721z"/><linearGradient id="SVGID_10_" x1="25.488" x2="19.161" y1="52.69" y2="4.859" gradientUnits="userSpaceOnUse"><stop offset="0" style="stop-color:#7894a3"/><stop offset=".028" style="stop-color:#849daa"/><stop offset=".109" style="stop-color:#a0b1bb"/><stop offset=".2" style="stop-color:#b7c2c8"/><stop offset=".305" style="stop-color:#c8cfd3"/><stop offset=".431" style="stop-color:#d5d8da"/><stop offset=".601" style="stop-color:#dcdddf"/><stop offset="1" style="stop-color:#dedfe0"/></linearGradient><rect width="5.876" height="5.871" x="21.834" y="44.348" fill="url(#SVGID_10_)"/><linearGradient id="SVGID_11_" x1="24.612" x2="18.284" y1="52.81" y2="4.972" gradientUnits="userSpaceOnUse"><stop offset="0" style="stop-color:#7894a3"/><stop offset=".028" style="stop-color:#849daa"/><stop offset=".109" style="stop-color:#a0b1bb"/><stop offset=".2" style="stop-color:#b7c2c8"/><stop offset=".305" style="stop-color:#c8cfd3"/><stop offset=".431" style="stop-color:#d5d8da"/><stop offset=".601" style="stop-color:#dcdddf"/><stop offset="1" style="stop-color:#dedfe0"/></linearGradient><path fill="url(#SVGID_11_)" d="M27.71,52.084h-5.876v3.871c2.07,0,4.057-0.391,5.876-1.113V52.084z"/><linearGradient id="SVGID_12_" x1="33.002" x2="26.672" y1="51.7" y2="3.848" gradientUnits="userSpaceOnUse"><stop offset="0" style="stop-color:#7894a3"/><stop offset=".028" style="stop-color:#849daa"/><stop offset=".109" style="stop-color:#a0b1bb"/><stop offset=".2" style="stop-color:#b7c2c8"/><stop offset=".305" style="stop-color:#c8cfd3"/><stop offset=".431" style="stop-color:#d5d8da"/><stop offset=".601" style="stop-color:#dcdddf"/><stop offset="1" style="stop-color:#dedfe0"/></linearGradient><rect width="5.873" height="5.874" x="28.588" y="37.596" fill="url(#SVGID_12_)"/><linearGradient id="SVGID_13_" x1="33.297" x2="26.968" y1="51.658" y2="3.807" gradientUnits="userSpaceOnUse"><stop offset="0" style="stop-color:#7894a3"/><stop offset=".028" style="stop-color:#849daa"/><stop offset=".109" style="stop-color:#a0b1bb"/><stop offset=".2" style="stop-color:#b7c2c8"/><stop offset=".305" style="stop-color:#c8cfd3"/><stop offset=".431" style="stop-color:#d5d8da"/><stop offset=".601" style="stop-color:#dcdddf"/><stop offset="1" style="stop-color:#dedfe0"/></linearGradient><path fill="url(#SVGID_13_)" d="M29.964,45.726V51.6h5.034c0.293-0.269,0.571-0.547,0.84-0.84v-5.034H29.964z"/><linearGradient id="SVGID_14_" x1="32.799" x2="26.483" y1="51.735" y2="3.982" gradientUnits="userSpaceOnUse"><stop offset="0" style="stop-color:#7894a3"/><stop offset=".028" style="stop-color:#849daa"/><stop offset=".109" style="stop-color:#a0b1bb"/><stop offset=".2" style="stop-color:#b7c2c8"/><stop offset=".305" style="stop-color:#c8cfd3"/><stop offset=".431" style="stop-color:#d5d8da"/><stop offset=".601" style="stop-color:#dcdddf"/><stop offset="1" style="stop-color:#dedfe0"/></linearGradient><path fill="url(#SVGID_14_)" d="M31.457,57.109c1.878-0.739,2.349-0.998,3.795-2.348h-3.795V57.109z"/><linearGradient id="SVGID_15_" x1="39.822" x2="33.495" y1="50.796" y2="2.956" gradientUnits="userSpaceOnUse"><stop offset="0" style="stop-color:#7894a3"/><stop offset=".028" style="stop-color:#849daa"/><stop offset=".109" style="stop-color:#a0b1bb"/><stop offset=".2" style="stop-color:#b7c2c8"/><stop offset=".305" style="stop-color:#c8cfd3"/><stop offset=".431" style="stop-color:#d5d8da"/><stop offset=".601" style="stop-color:#dcdddf"/><stop offset="1" style="stop-color:#dedfe0"/></linearGradient><path fill="url(#SVGID_15_)" d="M36.326,43.469h3.167c0.72-1.82,1.111-3.803,1.111-5.874h-4.278V43.469z"/><linearGradient id="SVGID_16_" x1="40.361" x2="34.035" y1="50.724" y2="2.898" gradientUnits="userSpaceOnUse"><stop offset="0" style="stop-color:#7894a3"/><stop offset=".028" style="stop-color:#849daa"/><stop offset=".109" style="stop-color:#a0b1bb"/><stop offset=".2" style="stop-color:#b7c2c8"/><stop offset=".305" style="stop-color:#c8cfd3"/><stop offset=".431" style="stop-color:#d5d8da"/><stop offset=".601" style="stop-color:#dcdddf"/><stop offset="1" style="stop-color:#dedfe0"/></linearGradient><path fill="url(#SVGID_16_)" d="M39.002,51.426c1.172-1.693,1.609-2.33,2.347-4.21h-2.347V51.426z"/><linearGradient id="SVGID_17_" x1="10.258" x2="21.013" y1="24.181" y2="28.752" gradientUnits="userSpaceOnUse"><stop offset="0" style="stop-color:#fff;stop-opacity:.85"/><stop offset="1" style="stop-color:#fff;stop-opacity:0"/></linearGradient><path fill="url(#SVGID_17_)" d="M20.018,42.479h6.758v-6.758h4.294c0.022-0.226,0.036-0.449,0.042-0.667 c0.234-6.033-2.54-12.666-5.106-16.809c-3.652-5.901-5.627-12.72-5.627-12.72s-2.272,4.228-5.426,8.257 C9.883,20.234,4.769,28.494,4.764,34.529c-0.007,8.965,5.29,14.277,12.298,14.55c0.998,0.037,1.988-0.084,2.956-0.332v-0.332 V42.479z"/><path fill="none" d="M26.775,35.721h6.348h4.629c0-8.242-6.448-16.133-10.862-21.895c-4.247-5.544-6.462-10.249-6.462-10.249 s-2.207,4.705-6.454,10.249C9.56,19.588,3.104,27.479,3.104,35.721c0,9.569,7.345,17.324,16.914,17.324v-4.629v-5.938h6.758V35.721 z"/><g><defs><path id="SVGID_18_" d="M20.018,42.518h6.758v-6.76h4.294c0.022-0.227,0.036-0.447,0.042-0.67 c0.234-6.031-2.54-12.665-5.106-16.807c-3.652-5.899-5.627-12.718-5.627-12.718s-2.272,4.226-5.426,8.254 C9.883,20.271,4.769,28.533,4.764,34.568c-0.007,8.965,5.29,14.277,12.298,14.545c0.998,0.037,1.988-0.084,2.956-0.327v-0.336 V42.518z"/></defs><clipPath id="SVGID_19_"><use overflow="visible" xlink:href="#SVGID_18_"/></clipPath><g clip-path="url(#SVGID_19_)" opacity=".75"><linearGradient id="SVGID_20_" x1="7.685" x2="27.645" y1="40.149" y2="35.935" gradientUnits="userSpaceOnUse"><stop offset="0" style="stop-color:#fff"/><stop offset=".91" style="stop-color:#fff;stop-opacity:.0896"/><stop offset="1" style="stop-color:#fff;stop-opacity:0"/></linearGradient><path fill="url(#SVGID_20_)" d="M11.17,37.201C1.639,41.6-4.631,48.801-8.654,59.998c0.906-22.021,11.348-32.383,21.426-37.324 C10.096,30.873,11.17,37.201,11.17,37.201z"/><linearGradient id="SVGID_21_" x1="5.809" x2="25.77" y1="31.281" y2="27.067" gradientUnits="userSpaceOnUse"><stop offset="0" style="stop-color:#fff"/><stop offset=".91" style="stop-color:#fff;stop-opacity:.0896"/><stop offset="1" style="stop-color:#fff;stop-opacity:0"/></linearGradient><path fill="url(#SVGID_21_)" d="M14.901,21.963c-2.67,8.193-1.6,14.521-1.6,14.521c5.67-2.204,14.253-3.093,19.333-3.303 c-1.239-7.207-4.009-13.729-4.009-13.729S21.954,19.939,14.901,21.963z"/></g></g></g></svg>